<svg width="25" height="24" viewBox="0 0 25 24" fill="none" xmlns="http://www.w3.org/2000/svg">
<g id="Icons/Facebook/Filled">
<path id="Vector" d="M12.5 21.5114C12.5 21.7877 12.7241 22.013 12.9999 21.9994C18.2905 21.7388 22.5 17.3642 22.5 12.0059C22.5 6.47977 18.0228 2 12.5 2C6.97715 2 2.5 6.47977 2.5 12.0059C2.5 16.6337 5.63989 20.5277 9.90433 21.6713C10.2097 21.7533 10.5 21.5158 10.5 21.1995V14.007H9.5C8.94771 14.007 8.5 13.5591 8.5 13.0064C8.5 12.4538 8.94772 12.0059 9.5 12.0059H10.5V10.0047C10.5 8.34687 11.8431 7.00293 13.5 7.00293H14.5C15.0523 7.00293 15.5 7.45091 15.5 8.00352C15.5 8.55613 15.0523 9.0041 14.5 9.0041H13.5C12.9477 9.0041 12.5 9.45208 12.5 10.0047V12.0059H14.5C15.0523 12.0059 15.5 12.4538 15.5 13.0064C15.5 13.5591 15.0523 14.007 14.5 14.007H12.5V21.5114Z" fill="white"/>
</g>
</svg>
