<svg width="20" height="20" viewBox="0 0 20 20" fill="none" xmlns="http://www.w3.org/2000/svg">
<path id="Vector" d="M19.7192 18.3126L16.0114 14.6326C17.4506 12.837 18.1476 10.5579 17.959 8.26391C17.7705 5.96991 16.7106 3.83539 14.9975 2.29925C13.2844 0.763116 11.0481 -0.0578805 8.74862 0.00507995C6.44911 0.0680404 4.26109 1.01017 2.63448 2.63775C1.00786 4.26533 0.066292 6.45465 0.00336896 8.75553C-0.059554 11.0564 0.760954 13.294 2.29618 15.0081C3.83141 16.7223 5.96466 17.7827 8.25729 17.9714C10.5499 18.1601 12.8277 17.4627 14.6222 16.0226L18.3 19.7026C18.3929 19.7963 18.5035 19.8707 18.6253 19.9215C18.747 19.9723 18.8777 19.9984 19.0096 19.9984C19.1415 19.9984 19.2722 19.9723 19.3939 19.9215C19.5157 19.8707 19.6263 19.7963 19.7192 19.7026C19.8993 19.5161 20 19.2669 20 19.0076C20 18.7483 19.8993 18.4991 19.7192 18.3126ZM9.01554 16.0226C7.63189 16.0226 6.27932 15.6121 5.12886 14.8429C3.9784 14.0737 3.08172 12.9805 2.55223 11.7014C2.02273 10.4223 1.88419 9.01484 2.15412 7.65698C2.42406 6.29911 3.09035 5.05183 4.06873 4.07286C5.04712 3.09389 6.29366 2.42721 7.65072 2.15711C9.00778 1.88702 10.4144 2.02564 11.6927 2.55545C12.9711 3.08527 14.0637 3.98247 14.8324 5.13362C15.6011 6.28476 16.0114 7.63814 16.0114 9.02261C16.0114 10.8791 15.2743 12.6596 13.9623 13.9724C12.6504 15.2851 10.871 16.0226 9.01554 16.0226Z" fill="#7C7C8D"/>
</svg>
